<?xml version="1.0" encoding="utf-8"?><svg viewBox="0 0 48 32" xmlns="http://www.w3.org/2000/svg" xmlns:xlink="http://www.w3.org/1999/xlink"><style>:root>svg{display:none}:root>svg:target{display:block}</style><svg fill="none" viewBox="0 0 16 16" id="Arrow" xmlns="http://www.w3.org/2000/svg"><path d="M8 0L6.59 1.41 12.17 7H0v2h12.17l-5.58 5.59L8 16l8-8-8-8z" fill="#5A98D0"/></svg><svg fill="none" viewBox="0 0 48 32" id="MainIcon1" xmlns="http://www.w3.org/2000/svg"><circle cx="16" cy="16" r="16" fill="#316099"/><circle cx="32" cy="16" r="15" fill="#fff" stroke="#316099" stroke-width="2"/><path d="M39.3 22L34.38 8h-3.42l-4.9 14h2.98l.84-2.52h5.58L36.3 22h3zm-6.62-10.82l1.92 5.72h-3.84l1.92-5.72z" fill="#316099"/></svg><svg fill="none" viewBox="0 0 48 32" id="MainIcon2" xmlns="http://www.w3.org/2000/svg"><circle cx="16" cy="16" r="16" fill="#98C3E8"/><circle cx="32" cy="16" r="15" fill="#fff" stroke="#316099" stroke-width="2"/><path d="M38.3 23L33.38 9h-3.42l-4.9 14h2.98l.84-2.52h5.58L35.3 23h3zm-6.62-10.82l1.92 5.72h-3.84l1.92-5.72z" fill="#316099"/></svg><svg fill="none" viewBox="0 0 24 16" id="Navicon" xmlns="http://www.w3.org/2000/svg"><path d="M0 16h24v-2.667H0V16zm0-6.667h24V6.667H0v2.666zM0 0v2.667h24V0H0z" fill="#356EAD"/></svg></svg>